<?xml version="1.0" encoding="utf-8"?>
<!-- Generator: Adobe Illustrator 16.0.4, SVG Export Plug-In . SVG Version: 6.00 Build 0)  -->
<!DOCTYPE svg PUBLIC "-//W3C//DTD SVG 1.1//EN" "http://www.w3.org/Graphics/SVG/1.1/DTD/svg11.dtd">
<svg version="1.1" id="Calque_2" xmlns="http://www.w3.org/2000/svg" xmlns:xlink="http://www.w3.org/1999/xlink" x="0px" y="0px"
	 width="191.789px" height="86.771px" viewBox="0 0 191.789 86.771" enable-background="new 0 0 191.789 86.771"
	 xml:space="preserve">
<g>
	<path fill-rule="evenodd" clip-rule="evenodd" fill="#ffffff" d="M58.392,52.615H62.2c0.926-0.025,1.903-0.899,1.903-1.808V26.427
		h43.627c0.689,0,1.272-0.509,1.26-1.181V22.93c0.013-0.7-0.645-1.185-1.26-1.16H59.842c-0.556-0.025-1.738,0.541-1.738,2.025
		v18.432L47.796,23.672c-0.501-0.916-0.728-1.442-1.851-2.06c-0.874-0.522-2.053-0.397-2.963-0.373h-2.586
		c-1.213-0.024-1.993,1.05-2.012,2.033v27.537c0.019,0.908,0.99,1.782,1.906,1.808h2.514c0.93-0.025,1.905-0.899,1.891-1.808V31.509
		l10.756,19.299C55.769,51.334,56.896,52.59,58.392,52.615"/>
	<path fill-rule="evenodd" clip-rule="evenodd" fill="#ffffff" d="M108.572,36.488h-2.998c-1.065-0.032-1.316-0.523-1.586-1.181
		c-0.113-0.275-0.994-1.607-3.854-1.591c-2.812-0.017-3.638,0.806-3.638,2.049c0,1.991,3.673,2.289,5.527,2.733
		c4.544,1.048,8.16,2.255,8.132,7.228c0.028,3.995-3.827,7.24-10.125,7.245c-6.324-0.005-10.114-3.556-10.114-6.58
		c0-1.148,0.42-1.447,1.389-1.506l2.5,0.042c1.71-0.042,1.521,0.598,2.106,1.434c0.692,0.932,2.102,1.773,4.373,1.773
		c2.249,0,3.865-1.008,3.842-2.234c0.023-2.339-3.971-2.237-7.348-3.256c-3.64-1.116-6.398-2.657-6.398-6.621
		c0-3.768,3.492-6.854,9.529-6.849c6.308-0.005,9.655,3.357,9.645,6.022C109.565,35.999,109.076,36.456,108.572,36.488"/>
	<path fill-rule="evenodd" clip-rule="evenodd" fill="#ffffff" d="M118.725,23.131v6.846l4.062-0.025c0.591,0,1.14,0.506,1.14,1.165
		v2.067c0,0.623-0.549,1.133-1.14,1.139l-4.062,0.019v9.571c0,2.38,0.62,3.913,3.125,3.896h0.291c1.237,0,1.7,0.727,1.681,1.457
		v1.999c0.02,0.66-0.622,1.325-1.23,1.351c-0.604-0.025-1.175-0.025-1.948,0c-2.439-0.075-3.092-0.075-5.022-1.458
		c-2.346-1.682-2.907-4.708-2.907-6.229V34.341l-1.391-0.019c-0.576-0.005-1.138-0.516-1.166-1.139v-2.067
		c0.028-0.658,0.59-1.165,1.166-1.165l1.391,0.025v-6.846c0-0.918,0.746-1.72,1.767-1.708h2.46
		C117.977,21.411,118.725,22.212,118.725,23.131"/>
	<path fill-rule="evenodd" clip-rule="evenodd" fill="#ffffff" d="M131.49,50.901V23.129c0-0.917-0.852-1.718-1.871-1.707h-2.551
		c-0.943,0-1.799,0.79-1.799,1.707v27.771c0,0.89,0.819,1.689,1.799,1.689l2.551,0.025C130.658,52.59,131.49,51.79,131.49,50.901"/>
	<path fill-rule="evenodd" clip-rule="evenodd" fill="#ffffff" d="M82.115,45.851c0.414-0.515,0.755-0.965,1.644-0.965l2.929,0.042
		c1.616-0.059,1.688,0.923,1.266,2.155c-0.66,1.852-2.391,3.549-4.231,4.507c-1.835,0.969-3.667,1.409-6.026,1.409
		c-6.759,0-11.517-5.373-11.517-11.929c0-6.548,4.111-11.903,11.458-11.895c7.374-0.008,11.348,5.282,11.329,11.895
		c0.02,0.382,0.02,1.74-1.764,1.74H72.31c0,2.892,2.372,5.091,5.254,5.091C79.394,47.902,80.995,47.369,82.115,45.851 M72.31,38.499
		h10.543c0-2.5-2.617-4.624-5.289-4.624C74.893,33.875,72.306,36.024,72.31,38.499"/>
	<path fill-rule="evenodd" clip-rule="evenodd" fill="#ffffff" d="M136.422,22.713c-0.791,0.067-1.573,0.251-1.6,1.282v1.209
		c0.026,0.839,0.771,0.971,1.384,0.971h17.833c0.82,0,1.499-0.672,1.489-1.48v-2.018c0.01-1.232-0.739-1.705-1.437-1.666
		L136.422,22.713z"/>
	<path fill-rule="evenodd" clip-rule="evenodd" fill="#ffffff" d="M149.275,45.868c0.408-0.532,0.755-0.966,1.639-0.94h2.93
		c1.617-0.059,1.694,0.923,1.25,2.167c-0.642,1.856-2.373,3.537-4.209,4.495c-1.844,0.969-3.675,1.427-6.033,1.427
		c-6.775,0-11.518-5.391-11.518-11.93c0-6.546,4.117-11.877,11.462-11.877c7.354,0,11.348,5.248,11.337,11.877
		c0.011,0.366,0.011,1.749-1.769,1.749H139.45c0.02,2.891,2.389,5.082,5.277,5.082C146.547,47.918,148.156,47.369,149.275,45.868
		 M139.561,38.499h10.542c0-2.5-2.579-4.624-5.251-4.624C142.181,33.875,139.573,36.024,139.561,38.499"/>
	<path fill-rule="evenodd" clip-rule="evenodd" fill="#ffffff" d="M156.843,67.799c0-0.724,0.546-1.272,1.248-1.272
		c0.696,0,1.241,0.549,1.241,1.272c0,0.734-0.545,1.283-1.241,1.283C157.389,69.082,156.843,68.533,156.843,67.799 M158.091,69.333
		c0.836,0,1.55-0.65,1.55-1.534c0-0.882-0.714-1.522-1.55-1.522c-0.841,0-1.557,0.641-1.557,1.522
		C156.534,68.683,157.25,69.333,158.091,69.333 M157.764,67.925h0.31l0.465,0.758h0.305l-0.507-0.773
		c0.265-0.033,0.456-0.17,0.456-0.483c0-0.351-0.201-0.509-0.618-0.509H157.5v1.766h0.264V67.925z M157.764,67.699v-0.559h0.366
		c0.189,0,0.386,0.042,0.386,0.267c0,0.268-0.2,0.292-0.429,0.292H157.764z"/>
	<path fill-rule="evenodd" clip-rule="evenodd" fill="#ffffff" d="M17.119,59.197c0-0.749,0.452-1.249,1.245-1.249h2.823
		c2.343,0,4.084,1.531,4.084,3.812c0,2.333-1.804,3.782-3.985,3.782h-1.777v2.623c0,0.784-0.506,1.232-1.192,1.232
		c-0.684,0-1.197-0.448-1.197-1.232V59.197z M19.509,63.436h1.628c1.008,0,1.642-0.734,1.642-1.691c0-0.958-0.634-1.691-1.642-1.691
		h-1.628V63.436z"/>
	<path fill-rule="evenodd" clip-rule="evenodd" fill="#ffffff" d="M29.177,59.197c0-0.766,0.431-1.249,1.229-1.249h2.805
		c2.457,0,3.972,1.105,3.972,3.614c0,1.749-1.323,2.756-2.951,3.008l2.711,2.907c0.224,0.239,0.324,0.474,0.324,0.698
		c0,0.623-0.505,1.223-1.201,1.223c-0.29,0-0.668-0.106-0.924-0.414l-3.538-4.282h-0.037v3.464c0,0.784-0.507,1.232-1.194,1.232
		c-0.684,0-1.198-0.448-1.198-1.232V59.197z M31.568,62.977h1.643c0.876,0,1.485-0.53,1.485-1.415c0-0.915-0.609-1.407-1.485-1.407
		h-1.643V62.977z"/>
	<path fill-rule="evenodd" clip-rule="evenodd" fill="#ffffff" d="M40.785,63.628c0-3.317,2.236-5.864,5.487-5.864
		c3.21,0,5.492,2.631,5.492,5.864c0,3.297-2.217,5.87-5.492,5.87C43.036,69.498,40.785,66.925,40.785,63.628 M49.274,63.628
		c0-1.924-1.003-3.667-3.003-3.667c-1.99,0-2.996,1.743-2.996,3.667c0,1.949,0.972,3.673,2.996,3.673
		C48.301,67.301,49.274,65.577,49.274,63.628"/>
	<path fill-rule="evenodd" clip-rule="evenodd" fill="#ffffff" d="M55.939,59.197c0-0.65,0.447-1.249,1.245-1.249h4.082
		c0.702,0,1.071,0.54,1.071,1.105c0,0.545-0.355,1.102-1.071,1.102H58.33v2.325h2.472c0.771,0,1.15,0.548,1.15,1.081
		c0,0.558-0.379,1.117-1.15,1.117H58.33v3.487c0,0.784-0.512,1.232-1.193,1.232c-0.688,0-1.198-0.448-1.198-1.232V59.197z"/>
	<path fill-rule="evenodd" clip-rule="evenodd" fill="#ffffff" d="M66.211,59.337c0-0.791,0.396-1.39,1.241-1.39h3.959
		c0.763,0,1.129,0.54,1.129,1.105c0,0.545-0.382,1.102-1.129,1.102h-2.812v2.325h2.62c0.779,0,1.161,0.548,1.161,1.096
		c0,0.543-0.398,1.103-1.161,1.103h-2.62v2.432h2.953c0.769,0,1.132,0.54,1.132,1.099c0,0.535-0.383,1.1-1.132,1.1h-4.117
		c-0.701,0-1.224-0.481-1.224-1.201V59.337z"/>
	<path fill-rule="evenodd" clip-rule="evenodd" fill="#ffffff" d="M83.496,59.355c0,0.622-0.415,1.182-1.065,1.182
		c-0.66,0-1.17-0.483-2.125-0.483c-0.684,0-1.309,0.376-1.309,1.042c0.003,1.641,5.326,0.585,5.326,4.706
		c0,2.273-1.876,3.697-4.086,3.697c-1.222,0-3.869-0.29-3.869-1.782c0-0.623,0.409-1.141,1.068-1.141
		c0.751,0,1.641,0.624,2.677,0.624c1.057,0,1.633-0.588,1.633-1.374c0-1.882-5.331-0.74-5.331-4.448
		c0-2.231,1.837-3.613,3.955-3.613C81.261,57.764,83.496,58.098,83.496,59.355"/>
	<path fill-rule="evenodd" clip-rule="evenodd" fill="#ffffff" d="M95.252,59.355c0,0.622-0.417,1.182-1.067,1.182
		c-0.659,0-1.166-0.483-2.123-0.483c-0.686,0-1.309,0.376-1.309,1.042c0,1.641,5.327,0.585,5.327,4.706
		c0,2.273-1.884,3.697-4.086,3.697c-1.225,0-3.875-0.29-3.875-1.782c0-0.623,0.422-1.141,1.068-1.141
		c0.753,0,1.645,0.624,2.681,0.624c1.053,0,1.629-0.588,1.629-1.374c0-1.882-5.331-0.74-5.331-4.448
		c0-2.231,1.833-3.613,3.956-3.613C93.019,57.764,95.252,58.098,95.252,59.355"/>
	<path fill-rule="evenodd" clip-rule="evenodd" fill="#ffffff" d="M106.86,63.628c0-3.317,2.229-5.864,5.486-5.864
		c3.205,0,5.485,2.631,5.485,5.864c0,3.297-2.218,5.87-5.485,5.87C109.107,69.498,106.86,66.925,106.86,63.628 M115.345,63.628
		c0-1.924-1.01-3.667-2.998-3.667c-1.998,0-3.002,1.743-3.002,3.667c0.001,1.949,0.974,3.673,3.002,3.673
		C114.374,67.301,115.342,65.577,115.345,63.628"/>
	<path fill-rule="evenodd" clip-rule="evenodd" fill="#ffffff" d="M121.914,59.097c0-0.795,0.513-1.252,1.197-1.252
		c0.305,0,0.793,0.253,1.005,0.533l5.057,6.748h0.03v-6.029c0-0.795,0.51-1.252,1.193-1.252c0.687,0,1.197,0.457,1.197,1.252v9.068
		c0,0.784-0.511,1.232-1.197,1.232c-0.299,0-0.777-0.239-0.999-0.532l-5.06-6.664h-0.033v5.964c0,0.784-0.512,1.232-1.193,1.232
		c-0.685,0-1.197-0.448-1.197-1.232V59.097z"/>
	<path fill-rule="evenodd" clip-rule="evenodd" fill="#ffffff" d="M138.751,59.077c0.276-0.723,0.895-1.313,1.712-1.313
		c0.846,0,1.434,0.548,1.706,1.313l3.125,8.68c0.099,0.252,0.126,0.476,0.126,0.594c0,0.624-0.505,1.047-1.097,1.047
		c-0.674,0-1.005-0.348-1.166-0.821l-0.477-1.501h-4.436l-0.479,1.484c-0.158,0.49-0.494,0.838-1.149,0.838
		c-0.634,0-1.185-0.473-1.185-1.115c0-0.249,0.089-0.44,0.122-0.525L138.751,59.077z M138.932,64.876h3.027l-1.479-4.63h-0.03
		L138.932,64.876z"/>
	<path fill-rule="evenodd" clip-rule="evenodd" fill="#ffffff" d="M149.362,59.097c0-0.795,0.509-1.252,1.193-1.252
		c0.688,0,1.195,0.457,1.195,1.252v8.013h2.842c0.812,0,1.166,0.606,1.147,1.14c-0.032,0.536-0.444,1.059-1.147,1.059h-3.989
		c-0.784,0-1.241-0.51-1.241-1.314V59.097z"/>
	<path fill-rule="evenodd" clip-rule="evenodd" fill="#ffffff" d="M100.015,59.197c0-0.8,0.512-1.249,1.197-1.249
		c0.684,0,1.196,0.449,1.196,1.249v9.053c0,0.801-0.513,1.249-1.196,1.249c-0.685,0-1.197-0.448-1.197-1.249V59.197z"/>
	<path fill-rule="evenodd" clip-rule="evenodd" fill="#ffffff" d="M19.661,47.434c-2.821-1.915-5.125-4.297-6.926-6.955
		c-1.095-1.258-2.095-2.624-2.934-4.139c-2.04-3.701-3.01-7.696-3.01-11.629c0-8.481,4.492-16.708,12.44-21.101
		c0.727-0.397,1.465-0.748,2.208-1.064C15.874,4.338,10.897,7.677,7.408,12.793c-8.061,11.827-4.998,27.96,6.837,36.016
		c7.112,4.84,15.782,5.666,23.312,2.981C31.48,52.525,25.118,51.157,19.661,47.434"/>
	<path fill-rule="evenodd" clip-rule="evenodd" fill="#ffffff" d="M14.882,37.466c-1.214-2.199-2.041-4.499-2.524-6.83
		c-0.446-1.252-0.794-2.543-1.018-3.9c-0.2-1.226-0.297-2.424-0.297-3.623c0-10.687,7.732-20.101,18.621-21.889
		c0.499-0.085,0.997-0.134,1.495-0.183c-0.062,0-0.125-0.013-0.187-0.013c-3.923,0-7.837,0.901-11.485,2.927
		C11.662,8.27,7.246,16.365,7.246,24.71c0,3.865,0.95,7.799,2.96,11.438c3.499,6.339,9.469,10.436,16.048,11.761
		C21.593,45.825,17.543,42.271,14.882,37.466"/>
	<path fill-rule="evenodd" clip-rule="evenodd" fill="#ffffff" d="M54.816,21.48c0-4.173-1.447-8.379-4.407-11.803
		c-3.576-4.139-8.609-6.263-13.655-6.263c-4.11,0-8.229,1.406-11.567,4.297c-4.051,3.499-6.12,8.447-6.12,13.427
		c0,0.101,0.002,0.192,0.006,0.282c0.848-3.355,2.689-6.479,5.492-8.904c3.293-2.848,7.356-4.239,11.414-4.239
		c4.972,0,9.931,2.091,13.461,6.171c2.92,3.373,4.343,7.524,4.343,11.638c0,0.535-0.023,1.068-0.069,1.591
		C54.444,25.695,54.816,23.594,54.816,21.48"/>
	<path fill-rule="evenodd" clip-rule="evenodd" fill="#ffffff" d="M36.755,3.021c3.473,0,6.928,1.008,9.937,2.95
		c-3.75-2.931-8.434-4.655-13.411-4.655c-1.17,0-2.361,0.091-3.551,0.292C19.028,3.363,11.433,12.617,11.433,23.113
		c0,1.175,0.094,2.366,0.29,3.566c0.67,4.072,2.427,7.689,4.92,10.609c-1.314-2.172-2.245-4.623-2.679-7.271
		c-0.186-1.114-0.276-2.221-0.276-3.315c0.004-6.911,3.544-13.278,9.156-17.116c0.632-0.766,1.313-1.5,2.089-2.164
		C28.344,4.464,32.552,3.021,36.755,3.021"/>
	<polygon fill="#ffffff" points="24.638,75.353 21.527,82.513 18.416,75.353 16.999,75.353 16.999,84.333 18.049,84.333 
		18.049,77.01 21.233,84.264 21.264,84.333 21.777,84.333 24.944,77.016 24.944,84.333 25.994,84.333 25.994,75.353 	"/>
	<path fill="#ffffff" d="M31.524,75.354h-0.995l-3.92,8.98h1.11l0.988-2.321h4.477l0.951,2.321h1.171L31.524,75.354z M32.791,81.036
		h-3.662l1.859-4.371L32.791,81.036z"/>
	<polygon fill="#ffffff" points="38.127,79.479 42.685,75.354 41.21,75.354 37.061,79.127 37.061,75.354 36.011,75.354 
		36.011,84.334 37.061,84.334 37.061,79.907 41.404,84.334 42.908,84.334 	"/>
	<rect x="43.521" y="75.354" fill="#ffffff" width="1.051" height="8.98"/>
	<polygon fill="#ffffff" points="52.095,75.354 52.095,82.791 46.925,75.354 45.695,75.354 45.695,84.334 46.747,84.334 
		46.747,76.896 51.917,84.334 53.147,84.334 53.147,75.354 	"/>
	<path fill="#ffffff" d="M58.683,79.381v0.977h2.1v2.754c-0.572,0.321-1.314,0.471-2.328,0.471c-2.114,0-3.591-1.538-3.591-3.738
		s1.477-3.737,3.591-3.737c0.929,0,1.965,0.439,2.466,1.045l0.084,0.102l0.762-0.797l-0.08-0.081
		c-0.814-0.826-1.902-1.245-3.233-1.245c-2.732,0-4.64,1.938-4.64,4.714s1.908,4.714,4.64,4.714c1.285,0,2.372-0.264,3.319-0.806
		l0.06-0.034v-4.337H58.683z"/>
	<g>
		<path fill="#ffffff" d="M66.513,75.644h2.917l2.015,5.708h0.024l2.026-5.708h2.904v8.747h-1.927v-6.708h-0.025l-2.298,6.708h-1.47
			l-2.212-6.708h-0.024v6.708h-1.929V75.644z"/>
	</g>
	<g>
		<path fill="#ffffff" d="M81.723,75.421c2.729,0,4.719,1.791,4.719,4.597c0,2.805-1.989,4.596-4.719,4.596
			c-2.73,0-4.719-1.791-4.719-4.596C77.003,77.212,78.993,75.421,81.723,75.421z M81.723,82.835c1.644,0,2.718-1.187,2.718-2.817
			S83.366,77.2,81.723,77.2c-1.643,0-2.718,1.187-2.718,2.817S80.08,82.835,81.723,82.835z"/>
	</g>
	<g>
		<path fill="#ffffff" d="M87.048,75.644h3.384c1.792,0,3.299,0.617,3.299,2.656c0,1.224-0.654,2.175-1.889,2.396l2.223,3.694
			h-2.311l-1.828-3.496h-0.95v3.496h-1.928V75.644z M88.976,79.264h1.136c0.704,0,1.619-0.024,1.619-0.977
			c0-0.876-0.792-1.013-1.496-1.013h-1.259V79.264z"/>
	</g>
	<g>
		<path fill="#ffffff" d="M94.645,75.644h5.943v1.78h-4.016v1.63h3.793v1.779h-3.793v1.777h4.238v1.78h-6.166V75.644z"/>
	</g>
	<path fill="#ffffff" d="M108.337,75.354H105.7v8.98h1.05v-4.15h1.773c1.269,0,2.75-0.629,2.75-2.403
		C111.273,75.528,109.026,75.354,108.337,75.354z M110.223,77.781c0,1.288-1.214,1.427-1.736,1.427h-1.736v-2.878h1.688
		C109.301,76.329,110.223,76.71,110.223,77.781z"/>
	<path fill="#ffffff" d="M116.269,75.13c-2.73,0-4.639,1.938-4.639,4.714s1.908,4.714,4.639,4.714c2.732,0,4.641-1.938,4.641-4.714
		S119.001,75.13,116.269,75.13z M116.269,83.582c-2.112,0-3.589-1.538-3.589-3.738s1.477-3.737,3.589-3.737
		c2.113,0,3.591,1.537,3.591,3.737S118.382,83.582,116.269,83.582z"/>
	<path fill="#ffffff" d="M124.634,79.398c-1.063-0.32-1.983-0.598-1.983-1.752c0-1.136,0.995-1.539,1.848-1.539
		c0.698,0,1.209,0.26,1.61,0.815l0.067,0.096l0.898-0.646l-0.073-0.096c-0.58-0.761-1.413-1.146-2.478-1.146
		c-1.408,0-2.922,0.787-2.922,2.516c0,1.875,1.377,2.309,2.595,2.69c1.026,0.323,1.914,0.603,1.914,1.646
		c0,0.941-0.759,1.601-1.847,1.601c-0.84,0-1.497-0.361-1.901-1.044l-0.063-0.106l-0.981,0.656l0.07,0.099
		c0.649,0.91,1.638,1.371,2.937,1.371c1.409,0,2.837-0.885,2.837-2.576C127.161,80.159,125.819,79.755,124.634,79.398z"/>
	<path fill="#ffffff" d="M130.911,79.398c-1.064-0.32-1.984-0.598-1.984-1.752c0-1.136,0.995-1.539,1.848-1.539
		c0.698,0,1.211,0.26,1.609,0.815l0.068,0.096l0.897-0.646l-0.072-0.096c-0.58-0.761-1.414-1.146-2.478-1.146
		c-1.409,0-2.923,0.787-2.923,2.516c0,1.875,1.379,2.309,2.595,2.69c1.026,0.323,1.915,0.603,1.915,1.646
		c0,0.941-0.76,1.601-1.847,1.601c-0.839,0-1.497-0.361-1.899-1.043l-0.064-0.107l-0.983,0.655l0.071,0.1
		c0.649,0.91,1.638,1.371,2.937,1.371c1.409,0,2.836-0.885,2.836-2.576C133.437,80.159,132.096,79.755,130.911,79.398z"/>
	<rect x="134.572" y="75.354" fill="#ffffff" width="1.051" height="8.98"/>
	<path fill="#ffffff" d="M141.322,79.581c0.772-0.306,1.221-0.954,1.221-1.801c0-1.634-0.961-2.427-2.936-2.427h-2.639v8.98h2.911
		c0.714,0,3.043-0.185,3.043-2.562C142.923,80.672,142.297,79.839,141.322,79.581z M139.594,79.133h-1.574v-2.804h1.687
		c1.201,0,1.786,0.475,1.786,1.451C141.492,78.098,141.354,79.133,139.594,79.133z M138.02,80.111h1.873
		c0.957,0,1.981,0.442,1.981,1.686c0,0.584-0.274,1.564-2.106,1.564h-1.748V80.111z"/>
	<polygon fill="#ffffff" points="144.988,83.361 144.988,75.354 143.938,75.354 143.938,84.334 149.065,84.334 149.065,83.361 	"/>
	<polygon fill="#ffffff" points="151.016,83.361 151.016,80.184 155.266,80.184 155.266,79.207 151.016,79.207 151.016,76.329 
		155.551,76.329 155.551,75.354 149.965,75.354 149.965,84.334 155.748,84.334 155.748,83.361 	"/>
</g>
</svg>
